<svg viewBox="0 0 32 32">
  <path
    d="M11.3333333,6 C11.3333333,3.42266666 13.4226667,1.33333333 16,1.33333333 C18.5773333,1.33333333 20.6666667,3.42266666 20.6666667,6 L20.6666667,15.3333333 C20.6666667,17.9106667 18.5773333,20 16,20 C13.4226667,20 11.3333333,17.9106667 11.3333333,15.3333333 L11.3333333,6 Z M17.3333333,25.9173333 C22.5953333,25.2613333 26.6666667,20.7726667 26.6666667,15.3333333 L26.6666667,13.6666667 C26.6666667,13.2986667 26.368,13 26,13 L24.6666667,13 C24.2986667,13 24,13.2986667 24,13.6666667 L24,15.3333333 C24,19.7513333 20.418,23.3333333 16,23.3333333 C11.582,23.3333333 8,19.7513333 8,15.3333333 L8,13.6666667 C8,13.2986667 7.70133334,13 7.33333334,13 L6,13 C5.632,13 5.33333334,13.2986667 5.33333334,13.6666667 L5.33333334,15.3333333 C5.33333334,20.7726667 9.40466666,25.2613333 14.6666667,25.9173333 L14.6666667,30 C14.6666667,30.368 14.9653333,30.6666667 15.3333333,30.6666667 L16.6666667,30.6666667 C17.0346667,30.6666667 17.3333333,30.368 17.3333333,30 L17.3333333,25.9173333 Z">
  </path>
  <clipPath id="speaker-icon-clip-path">
    <path
      d="M11.3333333,6 C11.3333333,3.42266666 13.4226667,1.33333333 16,1.33333333 C18.5773333,1.33333333 20.6666667,3.42266666 20.6666667,6 L20.6666667,15.3333333 C20.6666667,17.9106667 18.5773333,20 16,20 C13.4226667,20 11.3333333,17.9106667 11.3333333,15.3333333 L11.3333333,6 Z">
    </path>
  </clipPath>
  <rect clip-path="url(#speaker-icon-clip-path)" fill="#34c724" x="11.33" y="6.931000000000002" width="9.33"
    height="18.67"></rect>
</svg>
