<svg width="512" height="512" viewBox="0 0 512 512" fill="none" xmlns="http://www.w3.org/2000/svg">
<rect x="36" y="36" width="440" height="440" rx="220" fill="white"/>
<path d="M142.974 186.507C142.555 186.441 142.343 186.364 142.257 186.325L142.029 185.983L141.607 185.753C141.586 185.734 141.407 185.559 141.244 184.851C141.056 184.033 140.984 182.92 140.961 181.519C140.953 181.032 140.951 180.508 140.95 179.96C140.944 177.683 140.938 174.985 140.431 172.744C140.43 172.249 140.345 171.573 139.949 170.959C139.66 170.51 139.2 170.096 138.56 169.898C137.949 169.709 137.368 169.776 136.911 169.912C136.061 170.165 135.244 170.77 134.458 171.503C133.627 172.277 132.642 173.376 131.468 174.877C126.756 180.898 121.105 192.034 118.888 196.784L118.831 196.906L118.791 197.036C118.588 197.689 118.312 198.481 118 199.377C117.293 201.411 116.401 203.977 115.751 206.651C114.79 210.603 114.225 215.212 115.267 219.9C116.964 227.538 122.69 234.598 127.435 238.923C126.942 241.755 125.626 244.4 123.852 247.348C123.32 248.232 122.74 249.153 122.136 250.112C120.558 252.619 118.813 255.389 117.319 258.469C114.752 263.759 112.262 268.759 109.875 273.553C103.065 287.226 97.0898 299.224 92.5574 311.499C84.8678 332.326 82.9107 355.115 84.2199 365.916C85.5432 376.833 92.4669 393.67 110.312 402.593C123.433 409.153 134.449 410.948 139.256 411.034C143.722 414.793 154.843 421.135 169.352 421.159C178.615 421.928 190.789 418.862 195.691 417.263L195.806 417.226L195.914 417.175L240.808 396.309C244.324 394.887 250.166 393.067 256.206 392.247C262.36 391.412 268.277 391.68 272.232 393.987C277.837 397.256 280.003 399.299 281.223 401.014C281.846 401.89 282.266 402.739 282.789 403.815L282.825 403.888C283.335 404.938 283.93 406.162 284.852 407.587C286.801 410.599 289.728 413.051 293.238 413.868C296.841 414.707 300.738 413.748 304.326 410.519C307.479 407.681 308.092 404.045 307.66 400.881C307.256 397.928 305.939 395.243 304.782 393.55C303.053 388.863 296.354 378.891 282.071 371.495C274.428 367.537 264.376 367.364 255.2 368.574C245.958 369.794 237.235 372.47 231.985 374.58L231.905 374.613L231.827 374.652C222.915 379.171 212.141 383.812 202.487 387.52C192.783 391.248 184.384 393.967 180.162 394.721C179.756 394.794 179.382 394.868 179.017 394.94C177.844 395.174 176.761 395.389 174.96 395.474C172.92 395.57 169.978 395.489 165.202 394.985C166.692 390.066 167.228 384.011 167.321 381.271C167.643 375.458 167.322 371.283 166.822 368.239C166.414 365.76 165.882 364.028 165.543 362.927C165.467 362.679 165.4 362.463 165.347 362.278C164.155 358.106 158.404 339.235 155.212 330.279C154.304 326.726 153.211 323.016 152.057 319.099C149.637 310.884 146.95 301.761 145.141 291.281C144.811 289.371 144.492 287.619 144.192 285.969C142.818 278.422 141.835 273.025 142.005 264.445C142.122 258.53 142.634 252.945 143.402 249.671C143.785 248.037 144.168 247.323 144.453 246.983C144.636 246.764 144.847 246.615 145.304 246.476C154.709 246.783 164.431 246.766 173.802 239.738C177.712 236.806 180.626 232.341 182.677 228.117C184.74 223.868 186.025 219.662 186.584 217.034L186.599 216.965L186.609 216.894C187.236 212.398 188.527 202.101 188.527 197.63C188.527 195.388 188.363 193.749 188.133 192.583C188.018 192.001 187.882 191.509 187.728 191.104C187.598 190.766 187.378 190.273 186.991 189.886C185.967 188.862 184.722 188.635 183.69 188.782C182.745 188.916 181.961 189.354 181.48 189.739L181.306 189.877L181.167 190.051C180.189 191.273 178.582 192.984 176.857 194.369C175.996 195.06 175.148 195.635 174.371 196.029C173.573 196.434 172.984 196.579 172.602 196.579C171.313 196.579 170.574 196.281 170.034 195.906C169.421 195.482 168.915 194.866 168.189 193.898C167.51 192.992 166.354 192.051 165.111 191.201C163.819 190.319 162.257 189.419 160.612 188.628C158.969 187.837 157.202 187.136 155.5 186.671C153.83 186.215 152.069 185.944 150.501 186.153C146.294 186.714 144.098 186.682 142.974 186.507Z" fill="#423C3C" stroke="white" stroke-width="4"/>
<rect x="243.433" y="157.779" width="168.866" height="123.579" fill="#E5E5E5"/>
<path d="M389.848 263.448L346.736 228.958V263.448H260.512V177.224H346.736V211.714L389.848 177.224V263.448ZM411.404 134.112H238.956C233.239 134.112 227.756 136.383 223.713 140.426C219.671 144.468 217.4 149.951 217.4 155.668V285.004C217.4 290.721 219.671 296.204 223.713 300.246C227.756 304.289 233.239 306.56 238.956 306.56H411.404C417.121 306.56 422.603 304.289 426.646 300.246C430.688 296.204 432.96 290.721 432.96 285.004V155.668C432.96 149.951 430.688 144.468 426.646 140.426C422.603 136.383 417.121 134.112 411.404 134.112Z" fill="#292A2E" stroke="white" stroke-width="4"/>
</svg>
